<?xml version="1.0" encoding="UTF-8" standalone="no"?>
<svg xmlns:rdf="http://www.w3.org/1999/02/22-rdf-syntax-ns#" xmlns="http://www.w3.org/2000/svg" enable-background="new 0 0 100 100" xml:space="preserve" viewBox="5 -10 100 121.5" height="90" width="100" version="1.1" y="0px" x="0px" xmlns:cc="http://creativecommons.org/ns#" xmlns:dc="http://purl.org/dc/elements/1.1/"><g transform="translate(0,-13.5)"><path d="m-3173.4 76.7c-0.9 0-1.6-0.5-1.9-1.4-0.3-1.1 0.3-2.2 1.3-2.5l18.2-5.7c1.1-0.3 2.2 0.3 2.5 1.3 0.3 1.1-0.3 2.2-1.3 2.5l-18.2 5.7c-0.2 0-0.4 0.1-0.6 0.1z"/><path d="m-3195.6 76.7c-0.2 0-0.4 0-0.6-0.1l-18.2-5.7c-1.1-0.3-1.6-1.5-1.3-2.5 0.3-1.1 1.5-1.6 2.5-1.3l18.2 5.7c1.1 0.3 1.6 1.5 1.3 2.5-0.3 0.8-1 1.4-1.9 1.4z"/></g><g transform="translate(0,-13.5)"><path d="m-3173.4 65.2c-0.9 0-1.6-0.5-1.9-1.4-0.3-1.1 0.3-2.2 1.3-2.5l18.2-5.7c1.1-0.3 2.2 0.3 2.5 1.3 0.3 1.1-0.3 2.2-1.3 2.5l-18.2 5.7c-0.2 0.1-0.4 0.1-0.6 0.1z"/><path d="m-3195.6 65.2c-0.2 0-0.4 0-0.6-0.1l-18.2-5.7c-1.1-0.3-1.6-1.5-1.3-2.5 0.3-1.1 1.5-1.6 2.5-1.3l18.2 5.7c1.1 0.3 1.6 1.5 1.3 2.5-0.3 0.8-1 1.4-1.9 1.4z"/></g><g transform="translate(0,-13.5)"><path d="m-3173.4 53.7c-0.9 0-1.6-0.5-1.9-1.4-0.3-1.1 0.3-2.2 1.3-2.5l18.2-5.7c1.1-0.3 2.2 0.3 2.5 1.3 0.3 1.1-0.3 2.2-1.3 2.5l-18.2 5.7c-0.2 0.1-0.4 0.1-0.6 0.1z"/><path d="m-3195.6 53.7c-0.2 0-0.4 0-0.6-0.1l-18.2-5.7c-1.1-0.3-1.6-1.5-1.3-2.5 0.3-1.1 1.5-1.6 2.5-1.3l18.2 5.7c1.1 0.3 1.6 1.5 1.3 2.5-0.3 0.9-1 1.4-1.9 1.4z"/></g><g transform="translate(0,-13.5)"><path d="m-3173.4 42.2c-0.9 0-1.6-0.5-1.9-1.4-0.3-1.1 0.3-2.2 1.3-2.5l18.2-5.7c1.1-0.3 2.2 0.3 2.5 1.3 0.3 1.1-0.3 2.2-1.3 2.5l-18.2 5.7c-0.2 0.1-0.4 0.1-0.6 0.1z"/><path d="m-3195.6 42.2c-0.2 0-0.4 0-0.6-0.1l-18.2-5.7c-1.1-0.3-1.6-1.5-1.3-2.5 0.3-1.1 1.5-1.6 2.5-1.3l18.2 5.7c1.1 0.3 1.6 1.5 1.3 2.5-0.3 0.9-1 1.4-1.9 1.4z"/></g><g transform="translate(0,-13.5)"><path d="m-3141.9 10c-0.8-0.6-1.8-0.7-2.7-0.4l-39.6 12.4-39.6-12.4c-0.9-0.3-1.9-0.1-2.7 0.4-0.8 0.6-1.2 1.5-1.2 2.4v69.8c0 1.3 0.9 2.5 2.1 2.9l40.5 12.6h0.2 0.2 0.2 0.3 0.3 0.2 0.1c0.1 0 0.1 0 0.2-0.1l40.5-12.6c1.2-0.4 2.1-1.6 2.1-2.9v-69.7c0.1-1-0.3-1.8-1.1-2.4zm-79.7 6.5 34.5 10.8v63.5l-34.5-10.8v-63.5zm74.9 63.5-34.5 10.8v-63.6l34.5-10.8v63.6z"/></g><g transform="translate(5.4)"><g><path d="m85.6 25.1c0.1 0.2 0.2 0.4 0.2 0.6 0-0.3-0.1-0.5-0.2-0.6z"/><path d="m85.9 25.6c0-0.2-0.1-0.4-0.2-0.6-0.1-0.1-0.1-0.2-0.2-0.2l-19.4-19.3c-0.3-0.3-0.7-0.5-1.2-0.5h-49.2c-0.9 0-1.6 0.7-1.6 1.6v86.8c0 0.9 0.7 1.6 1.6 1.6h68.6c0.9 0 1.6-0.7 1.6-1.6v-67.5-0.3zm-19.4-15.2 13.9 13.9h-13.9v-13.9zm16.2 81.4h-65.4v-83.6h46v17.8c0 0.9 0.7 1.6 1.6 1.6h17.8v64.2z"/></g></g><g transform="translate(0,-13.5)"><path d="m39.4 62.9c-0.3 0-0.6-0.1-0.9-0.3l-9.3-6.3c-0.4-0.3-0.7-0.8-0.7-1.3s0.3-1 0.7-1.3l9.3-6.3c0.7-0.5 1.7-0.3 2.2 0.4s0.3 1.7-0.4 2.2l-7.4 5 7.4 5c0.7 0.5 0.9 1.5 0.4 2.2-0.3 0.5-0.8 0.7-1.3 0.7z"/><path d="m60.6 62.9c-0.5 0-1-0.2-1.3-0.7-0.5-0.7-0.3-1.7 0.4-2.2l7.4-5-7.4-5c-0.7-0.5-0.9-1.5-0.4-2.2s1.5-0.9 2.2-0.4l9.3 6.3c0.4 0.3 0.7 0.8 0.7 1.3s-0.3 1-0.7 1.3l-9.3 6.3c-0.3 0.2-0.6 0.3-0.9 0.3z"/><path d="m46.4 65.9c-0.2 0-0.4 0-0.6-0.1-0.8-0.3-1.2-1.2-0.9-2.1l7.3-18.6c0.3-0.8 1.2-1.2 2.1-0.9 0.8 0.3 1.2 1.2 0.9 2.1l-7.3 18.6c-0.3 0.6-0.9 1-1.5 1z"/></g></svg>
