<?xml version="1.0" encoding="UTF-8" standalone="no"?>
<svg xmlns:rdf="http://www.w3.org/1999/02/22-rdf-syntax-ns#" xmlns="http://www.w3.org/2000/svg" xml:space="preserve" height="90" viewBox="5 -10 100 121.5" width="100" version="1.1" y="0px" x="0px" xmlns:cc="http://creativecommons.org/ns#" xmlns:dc="http://purl.org/dc/elements/1.1/"><g transform="translate(5.4 4.1149e-7)"><path d="m89.611 10.653h-80c-3.309 0-6 2.691-6 6v50c0 3.309 2.691 6 6 6h1v-2-2-9h-3v-43c0-1.103 0.896-2 2-2h80c1.104 0 2 0.897 2 2v43h-20v9 2 2h18c3.309 0 6-2.691 6-6v-50c0-3.308-2.691-6-6-6z"/><path d="m66.674 31.653h-36.938c-1.693 0-3.125 1.374-3.125 3v8h4v-7h35v25 9 2 2 6h-25v4c0 1.535-0.59 2.936-1.547 4h27.672c1.646 0 2.875-1.848 2.875-3.5v-10.5-2-2-9-26c0-1.654-1.318-3-2.937-3zm-18.231 53.252c-0.942 0-1.707-0.823-1.707-1.84 0-1.016 0.766-1.84 1.707-1.84 0.943 0 1.708 0.824 1.707 1.84 0 1.017-0.764 1.84-1.707 1.84z"/><path d="m36.611 45.142c-0.566-0.304-1.215-0.488-1.922-0.488h-3.078-1-4-1-1-8.001c-0.73 0-1.408 0.195-1.999 0.518-1.188 0.649-2 1.857-2 3.327v11.155 9 2 2 11.001c0 2.2 1.799 3.999 3.999 3.999h10.303 2.823 4.953c1.002 0 1.894-0.386 2.58-1 0.82-0.734 1.342-1.801 1.342-2.999v-5.001-1-5-2-2-9-11.156c0-1.493-0.802-2.715-2-3.356zm-9.811 39.03c-0.21 0.299-0.501 0.522-0.841 0.639-0.163 0.056-0.334 0.095-0.516 0.095-0.199 0-0.388-0.044-0.566-0.111-0.662-0.253-1.141-0.927-1.141-1.729 0-0.57 0.246-1.074 0.625-1.412 0.078-0.069 0.161-0.131 0.25-0.185 0.247-0.15 0.529-0.243 0.832-0.243 0.058 0 0.112 0.013 0.168 0.019 0.347 0.037 0.66 0.183 0.914 0.409 0.029 0.025 0.059 0.049 0.086 0.076 0.33 0.336 0.54 0.809 0.539 1.336 0 0.416-0.132 0.797-0.35 1.106zm7.811-24.519v9 2 2 5 1h-4-4-1-1-8v-6-2-2-9-11h8 1 1 4 1 3v11z"/><path d="m73.611 81.653c-1-3-2-1-2-1v2 0.5 3.5h9v-1c0-1-6-1-7-4z"/></g></svg>
