<?xml version="1.0" encoding="UTF-8" standalone="no"?>
<svg xmlns:rdf="http://www.w3.org/1999/02/22-rdf-syntax-ns#" xmlns="http://www.w3.org/2000/svg" enable-background="new 0 0 100 100" xml:space="preserve" height="90" viewBox="5 -10 100 121.5" width="100" version="1.1" y="0px" x="0px" xmlns:cc="http://creativecommons.org/ns#" xmlns:dc="http://purl.org/dc/elements/1.1/"><g transform="translate(5.4 3.8851e-7)"><path fill="none" d="m39.471 33.653c1.699 0.677 3.637 0.96 5.643 0.846 0.276-0.628 0.851-1.111 1.579-1.237 1.154-0.2 2.251 0.573 2.452 1.728 0.199 1.154-0.574 2.251-1.729 2.452-0.816 0.141-1.599-0.211-2.061-0.835-0.36 0.023-0.722 0.047-1.078 0.047-1.249 0-2.466-0.146-3.628-0.42 2.189 3.982 5.55 6.533 9.318 6.533 6.153 0 11.222-6.795 11.876-15.528 0.081-0.563 0.127-1.141 0.135-1.727l-1.922 2.207c1.061-2.346-2.714-8.319-2.714-8.319-6.359 4.599-15.814 0-15.814 0-2.854 1.126-1.502 9.152-1.502 9.152-0.713-0.498-1.365-0.756-1.898-0.891 0.197 2.145 0.663 4.167 1.343 5.992z"/><path fill="none" d="m26.021 92.185h48.881c2.021 0 3.669-1.647 3.669-3.667l4.891-28.393c-0.004-1.98-1.65-3.625-3.671-3.625h-58.659c-2.022 0-3.667 1.645-3.667 3.665l4.884 28.312c0.005 2.06 1.65 3.708 3.672 3.708zm24.441-20.089c0.972 0 1.758 0.788 1.758 1.755 0 0.974-0.786 1.759-1.758 1.759-0.971 0-1.758-0.785-1.758-1.759 0-0.967 0.787-1.755 1.758-1.755z"/><path d="m61.319 43.329c-0.074 3.26-4.902 5.892-10.856 5.892-5.952 0-10.782-2.631-10.854-5.892-7.365 0.672-13.434 5.809-15.486 12.682h52.681c-2.052-6.873-8.121-12.01-15.485-12.682z"/><g><path d="m78.201 93.473h-55.479c-0.54 0-0.979 0.438-0.979 0.978s0.439 0.976 0.979 0.976h55.479c0.542 0 0.978-0.436 0.978-0.976s-0.436-0.978-0.978-0.978z"/><path d="m26.021 92.672h48.881c2.293 0 4.156-1.863 4.153-4.115l4.891-28.392c0-2.292-1.864-4.154-4.155-4.154h-2.986-52.682-2.991c-2.292 0-4.156 1.862-4.152 4.196l4.885 28.311c0 2.291 1.864 4.154 4.156 4.154zm-4.889-36.172h58.658c2.021 0 3.667 1.645 3.671 3.625l-4.891 28.393c0 2.02-1.647 3.667-3.669 3.667h-48.88c-2.022 0-3.667-1.647-3.67-3.708l-4.884-28.312c-0.001-2.02 1.643-3.665 3.665-3.665z"/><path d="m50.462 75.609c0.972 0 1.758-0.785 1.758-1.759 0-0.967-0.786-1.755-1.758-1.755-0.971 0-1.758 0.788-1.758 1.755 0 0.974 0.787 1.759 1.758 1.759z"/></g><path d="m33.167 33.327c0.428 0 0.831-0.253 1.191-0.69 0.849 0.977 1.927 1.825 3.229 2.489 0.27 0.138 0.56 0.244 0.841 0.363 2.404 5.622 6.668 9.37 11.54 9.37 7.01 0 12.781-7.741 13.527-17.688 0.103-0.713 0.157-1.448 0.157-2.19 0-0.745-0.055-1.477-0.157-2.192-1.003-6.914-6.677-12.211-13.527-12.211-6.852 0-12.527 5.301-13.527 12.216-0.103 0.714-0.156 1.445-0.156 2.188 0 0.302 0.011 0.601 0.028 0.898 0.025 0.435 0.067 0.863 0.127 1.287 0.009 0.129 0.021 0.257 0.033 0.386 0.154 1.738 0.468 3.401 0.908 4.968-0.829-0.585-1.506-1.268-2.001-2.032 0.322-1.117 0.514-2.483 0.514-3.964 0-1.682-0.246-3.218-0.65-4.405 1.68-7.751 7.659-13.509 14.779-13.509 7.119 0 13.097 5.758 14.776 13.508-0.405 1.188-0.651 2.724-0.651 4.406 0 3.757 1.223 6.804 2.729 6.804s2.729-3.047 2.729-6.804c0-3.196-0.885-5.869-2.075-6.601-2.431-8.408-9.354-14.498-17.509-14.498s-15.079 6.089-17.509 14.495c-1.191 0.731-2.076 3.405-2.076 6.602 0.001 3.757 1.223 6.804 2.73 6.804zm8.361-13.929s9.455 4.599 15.814 0c0 0 3.774 5.973 2.714 8.319l1.922-2.207c-0.008 0.586-0.054 1.164-0.135 1.727-0.654 8.733-5.723 15.528-11.876 15.528-3.769 0-7.129-2.55-9.318-6.533 1.162 0.274 2.379 0.42 3.628 0.42 0.356 0 0.718-0.023 1.078-0.047 0.462 0.624 1.244 0.976 2.061 0.835 1.155-0.2 1.928-1.298 1.729-2.452-0.201-1.155-1.298-1.928-2.452-1.728-0.728 0.126-1.302 0.609-1.579 1.237-2.006 0.114-3.944-0.169-5.643-0.846-0.681-1.825-1.146-3.847-1.343-5.993 0.533 0.135 1.185 0.394 1.898 0.891 0 0.002-1.352-8.024 1.502-9.151z"/></g></svg>
